<svg width="36" height="36" fill="none" xmlns="http://www.w3.org/2000/svg"><circle cx="18" cy="18" r="17.5" stroke="#181818"/><path d="M21.56 11.901V11.9h-6.048a3.615 3.615 0 00-3.611 3.611v5.95a3.615 3.615 0 003.611 3.611h5.95a3.615 3.615 0 003.611-3.611v-5.95a3.616 3.616 0 00-3.511-3.61zm2.552 9.56c0 1.462-1.19 2.65-2.651 2.65h-5.95a2.654 2.654 0 01-2.65-2.65v-5.95a2.654 2.654 0 012.65-2.65h5.95a2.653 2.653 0 012.65 2.65v5.95z" fill="#181818" stroke="#181818" stroke-width=".2"/><path d="M18.486 14.84a3.651 3.651 0 00-3.647 3.646 3.651 3.651 0 003.647 3.648 3.651 3.651 0 003.648-3.648 3.651 3.651 0 00-3.648-3.647zm0 6.333a2.69 2.69 0 01-2.686-2.686 2.69 2.69 0 012.686-2.687 2.69 2.69 0 012.687 2.686 2.69 2.69 0 01-2.686 2.687z" fill="#181818" stroke="#181818" stroke-width=".2"/><path d="M22.118 13.68a1.05 1.05 0 000 2.096 1.05 1.05 0 000-2.096zm0 1.335a.288.288 0 11.001-.576.288.288 0 010 .576z" fill="#181818"/></svg>