<svg width="15" height="15" fill="none" xmlns="http://www.w3.org/2000/svg"><path d="M10.56.913V.912H4.512A3.616 3.616 0 00.9 4.524v5.951a3.616 3.616 0 003.611 3.612h5.95a3.616 3.616 0 003.611-3.612v-5.95A3.616 3.616 0 0010.561.912zm2.552 9.562a2.654 2.654 0 01-2.651 2.652H4.51a2.654 2.654 0 01-2.65-2.652v-5.95a2.654 2.654 0 012.65-2.653h5.95c1.461 0 2.65 1.19 2.65 2.652v5.951z" fill="#fff" stroke="#fff" stroke-width=".2"/><path d="M7.486 3.851A3.651 3.651 0 003.84 7.5a3.651 3.651 0 003.647 3.648A3.651 3.651 0 0011.134 7.5a3.651 3.651 0 00-3.647-3.648zm0 6.335A2.69 2.69 0 014.8 7.5a2.69 2.69 0 012.686-2.687A2.69 2.69 0 0110.173 7.5a2.69 2.69 0 01-2.687 2.687z" fill="#fff" stroke="#fff" stroke-width=".2"/><path d="M11.118 2.691a1.05 1.05 0 000 2.097 1.05 1.05 0 000-2.097zm0 1.336a.288.288 0 11.001-.576.288.288 0 010 .576z" fill="#fff"/></svg>