<svg width="84" height="36" fill="none" xmlns="http://www.w3.org/2000/svg"><path d="M3.242 22.086l.09 2.094v10.874H0V3.467l1.711-1.846h16.66v3.332H3.153l.18 2.094v9.591l-.18 1.688h.225l14.274-7.069 1.486 2.972-15.895 7.857zm22.784 12.968h-3.242V1.621h3.152l.18 16.705-.09 16.728zm9.861-19.182a7.563 7.563 0 01-3.084-.63c-.968-.428-1.824-.99-2.522-1.711a8 8 0 01-1.688-2.522c-.428-.945-.63-1.98-.63-3.107 0-1.08.202-2.093.63-3.061a8.841 8.841 0 011.688-2.522A7.815 7.815 0 0132.803.608 7.934 7.934 0 0135.887 0c1.104 0 2.14.203 3.107.63.946.428 1.801.991 2.522 1.711a8.066 8.066 0 011.71 2.522c.429.968.631 1.981.631 3.062 0 1.103-.202 2.139-.63 3.107a8.19 8.19 0 01-1.711 2.521 8.066 8.066 0 01-2.522 1.711 7.963 7.963 0 01-3.107.608zm6.057 19.925l2.679-1.98-9.636-12.969-2.094-2.499-2.59 1.891 11.64 15.557zM35.887 3.332c-.653 0-1.26.113-1.8.36a5.087 5.087 0 00-1.464.99 4.267 4.267 0 00-.968 1.464 4.687 4.687 0 00-.338 1.756c0 .653.113 1.261.338 1.824.225.563.563 1.058.968 1.486.428.428.9.743 1.463.968a4.75 4.75 0 001.801.338c.653 0 1.261-.113 1.801-.338.563-.225 1.036-.563 1.464-.968.428-.428.743-.9.99-1.486a4.47 4.47 0 00.36-1.824c0-.607-.112-1.193-.36-1.756a5.084 5.084 0 00-.99-1.463 4.672 4.672 0 00-1.464-.99 4.76 4.76 0 00-1.8-.36zm26.949 1.621H46.131V1.621h16.705v3.332zM46.108 20.015V16.66h16.706v3.333H46.108v.022zm16.728 15.04H46.131v-3.333h16.705v3.332zM84 4.953H67.295V1.621H84v3.332zM67.272 20.015V16.66h16.706v3.333H67.272v.022zM84 35.055H67.295v-3.333H84v3.332z" fill="#181818"/></svg>